<svg xmlns="http://www.w3.org/2000/svg" width="400" height="250" viewBox="0 0 400 250">
  <rect width="400" height="250" rx="10" fill="#0d1117" stroke="#30363d" stroke-width="1"/>
  
  <text x="30" y="35" fill="#c9d1d9" font-size="18" font-weight="600" font-family="Segoe UI, sans-serif">Yash's GitHub Stats</text>
  <text x="30" y="55" fill="#8b949e" font-size="11" font-family="Segoe UI, sans-serif">Auto-updated via GitHub Actions</text>
  
  <text x="30" y="85" fill="#c9d1d9" font-size="13" font-family="Segoe UI, sans-serif">
    <tspan font-weight="600">21</tspan> repositories
  </text>
  <text x="200" y="85" fill="#c9d1d9" font-size="13" font-family="Segoe UI, sans-serif">
    <tspan font-weight="600">0</tspan> stars earned
  </text>
  
  <text x="30" y="108" fill="#c9d1d9" font-size="13" font-family="Segoe UI, sans-serif">
    <tspan font-weight="600">49</tspan> commits (this year)
  </text>
  <text x="200" y="108" fill="#c9d1d9" font-size="13" font-family="Segoe UI, sans-serif">
    <tspan font-weight="600">49</tspan> contributions
  </text>
  
  <text x="30" y="131" fill="#c9d1d9" font-size="13" font-family="Segoe UI, sans-serif">
    <tspan font-weight="600">1</tspan> followers
  </text>
  <text x="200" y="131" fill="#c9d1d9" font-size="13" font-family="Segoe UI, sans-serif">
    <tspan font-weight="600">6</tspan> years on GitHub
  </text>
  
  <rect x="30" y="155" width="119" height="8" rx="2" fill="#dea584"/>
  <rect x="149" y="155" width="85" height="8" rx="2" fill="#3572A5"/>
  <rect x="234" y="155" width="51" height="8" rx="2" fill="#555555"/>
  <rect x="285" y="155" width="34" height="8" rx="2" fill="#b07219"/>
  <rect x="319" y="155" width="27" height="8" rx="2" fill="#f1e05a"/>
  <rect x="346" y="155" width="24" height="8" rx="2" fill="#A97BFF"/>
  
  <circle cx="35" cy="180" r="5" fill="#dea584"/>
  <text x="45" y="184" fill="#c9d1d9" font-size="12">Rust (35%)</text>
  
  <circle cx="35" cy="198" r="5" fill="#3572A5"/>
  <text x="45" y="202" fill="#c9d1d9" font-size="12">Python (25%)</text>
  
  <circle cx="35" cy="216" r="5" fill="#555555"/>
  <text x="45" y="220" fill="#c9d1d9" font-size="12">C (15%)</text>
  
  <circle cx="200" cy="180" r="5" fill="#b07219"/>
  <text x="210" y="184" fill="#c9d1d9" font-size="12">Java (10%)</text>
  
  <circle cx="200" cy="198" r="5" fill="#f1e05a"/>
  <text x="210" y="202" fill="#c9d1d9" font-size="12">JavaScript (8%)</text>
  
  <circle cx="200" cy="216" r="5" fill="#A97BFF"/>
  <text x="210" y="220" fill="#c9d1d9" font-size="12">Kotlin (7%)</text>
</svg>
