<svg xmlns="http://www.w3.org/2000/svg" width="400" height="250" viewBox="0 0 400 250">
  <rect width="400" height="250" rx="10" fill="#0d1117" stroke="#30363d" stroke-width="1"/>
  
  <text x="30" y="35" fill="#c9d1d9" font-size="18" font-weight="600" font-family="Segoe UI, sans-serif">Yash's GitHub Stats</text>
  <text x="30" y="55" fill="#8b949e" font-size="11" font-family="Segoe UI, sans-serif">Updated: 2026-03-31 20:05 UTC</text>
  
  <text x="30" y="85" fill="#c9d1d9" font-size="13" font-family="Segoe UI, sans-serif">
    <tspan font-weight="600">18</tspan> repositories
  </text>
  <text x="200" y="85" fill="#c9d1d9" font-size="13" font-family="Segoe UI, sans-serif">
    <tspan font-weight="600">0</tspan> stars earned
  </text>
  
  <text x="30" y="108" fill="#c9d1d9" font-size="13" font-family="Segoe UI, sans-serif">
    <tspan font-weight="600">50</tspan> commits (this year)
  </text>
  <text x="200" y="108" fill="#c9d1d9" font-size="13" font-family="Segoe UI, sans-serif">
    <tspan font-weight="600">66</tspan> contributions
  </text>
  
  <text x="30" y="131" fill="#c9d1d9" font-size="13" font-family="Segoe UI, sans-serif">
    <tspan font-weight="600">2</tspan> followers
  </text>
  <text x="200" y="131" fill="#c9d1d9" font-size="13" font-family="Segoe UI, sans-serif">
    <tspan font-weight="600">6</tspan> years on GitHub
  </text>
  
  <rect x="30" y="155" width="83.97999999999999" height="8" rx="2" fill="#555555"/><rect x="113.97999999999999" y="155" width="83.64" height="8" rx="2" fill="#3178c6"/><rect x="197.62" y="155" width="72.08" height="8" rx="2" fill="#f1e05a"/><rect x="269.7" y="155" width="64.6" height="8" rx="2" fill="#b07219"/><rect x="334.29999999999995" y="155" width="25.84" height="8" rx="2" fill="#dea584"/><rect x="360.13999999999993" y="155" width="10.2" height="8" rx="2" fill="#178600"/>
  
        <circle cx="35" cy="180" r="5" fill="#555555"/>
        <text x="45" y="184" fill="#c9d1d9" font-size="12">C (24.7%)</text>
        
        <circle cx="35" cy="198" r="5" fill="#3178c6"/>
        <text x="45" y="202" fill="#c9d1d9" font-size="12">TypeScript (24.6%)</text>
        
        <circle cx="35" cy="216" r="5" fill="#f1e05a"/>
        <text x="45" y="220" fill="#c9d1d9" font-size="12">JavaScript (21.2%)</text>
        
        <circle cx="200" cy="180" r="5" fill="#b07219"/>
        <text x="210" y="184" fill="#c9d1d9" font-size="12">Java (19.0%)</text>
        
        <circle cx="200" cy="198" r="5" fill="#dea584"/>
        <text x="210" y="202" fill="#c9d1d9" font-size="12">Rust (7.6%)</text>
        
        <circle cx="200" cy="216" r="5" fill="#178600"/>
        <text x="210" y="220" fill="#c9d1d9" font-size="12">C# (3.0%)</text>
        
</svg>