<svg xmlns="http://www.w3.org/2000/svg" width="400" height="250" viewBox="0 0 400 250">
  <rect width="400" height="250" rx="10" fill="#ffffff" stroke="#d0d7de" stroke-width="1"/>
  
  <text x="30" y="35" fill="#24292f" font-size="18" font-weight="600" font-family="Segoe UI, sans-serif">Yash's GitHub Stats</text>
  <text x="30" y="55" fill="#57606a" font-size="11" font-family="Segoe UI, sans-serif">Updated: 2026-04-01 07:42 UTC</text>
  
  <text x="30" y="85" fill="#24292f" font-size="13" font-family="Segoe UI, sans-serif">
    <tspan font-weight="600">18</tspan> repositories
  </text>
  <text x="200" y="85" fill="#24292f" font-size="13" font-family="Segoe UI, sans-serif">
    <tspan font-weight="600">0</tspan> stars earned
  </text>
  
  <text x="30" y="108" fill="#24292f" font-size="13" font-family="Segoe UI, sans-serif">
    <tspan font-weight="600">51</tspan> commits (this year)
  </text>
  <text x="200" y="108" fill="#24292f" font-size="13" font-family="Segoe UI, sans-serif">
    <tspan font-weight="600">67</tspan> contributions
  </text>
  
  <text x="30" y="131" fill="#24292f" font-size="13" font-family="Segoe UI, sans-serif">
    <tspan font-weight="600">2</tspan> followers
  </text>
  <text x="200" y="131" fill="#24292f" font-size="13" font-family="Segoe UI, sans-serif">
    <tspan font-weight="600">6</tspan> years on GitHub
  </text>
  
  <rect x="30" y="155" width="83.64" height="8" rx="2" fill="#555555"/><rect x="113.64" y="155" width="83.64" height="8" rx="2" fill="#3178c6"/><rect x="197.28" y="155" width="72.08" height="8" rx="2" fill="#f1e05a"/><rect x="269.36" y="155" width="64.6" height="8" rx="2" fill="#b07219"/><rect x="333.96000000000004" y="155" width="25.84" height="8" rx="2" fill="#dea584"/><rect x="359.8" y="155" width="10.2" height="8" rx="2" fill="#178600"/>
  
        <circle cx="35" cy="180" r="5" fill="#555555"/>
        <text x="45" y="184" fill="#24292f" font-size="12">C (24.6%)</text>
        
        <circle cx="35" cy="198" r="5" fill="#3178c6"/>
        <text x="45" y="202" fill="#24292f" font-size="12">TypeScript (24.6%)</text>
        
        <circle cx="35" cy="216" r="5" fill="#f1e05a"/>
        <text x="45" y="220" fill="#24292f" font-size="12">JavaScript (21.2%)</text>
        
        <circle cx="200" cy="180" r="5" fill="#b07219"/>
        <text x="210" y="184" fill="#24292f" font-size="12">Java (19.0%)</text>
        
        <circle cx="200" cy="198" r="5" fill="#dea584"/>
        <text x="210" y="202" fill="#24292f" font-size="12">Rust (7.6%)</text>
        
        <circle cx="200" cy="216" r="5" fill="#178600"/>
        <text x="210" y="220" fill="#24292f" font-size="12">C# (3.0%)</text>
        
</svg>